<svg xmlns="http://www.w3.org/2000/svg" width="120" height="120" viewBox="0 0 120 120">
    <rect width="100%" height="100%" fill="hsla(0, 0%, 13%, 1)"/>
    <path d="M30 20c-5 0-9 4-9 9s4 9 9 9 9-4 9-9-4-9-9-9zm0 3c3.3 0 6 2.7 6 6s-2.7 6-6 6-6-2.7-6-6 2.7-6 6-6zm-3 2c-1 0-1.8.8-1.8 1.8s.8 1.8 1.8 1.8 1.8-.8 1.8-1.8-.8-1.8-1.8-1.8zm6 0c-1 0-1.8.8-1.8 1.8s.8 1.8 1.8 1.8 1.8-.8 1.8-1.8-.8-1.8-1.8-1.8z" fill="hsla(0, 0%, 15%, 1)"/>
    <path d="M80 50h30v20H80V50zm10 5l5 5-5 5m10-5h10" stroke="hsla(0, 0%, 15%, 1)" stroke-width="2" fill="none"/>
    <path d="M50 90l-5 5 5 5m20-10l5 5-5 5" stroke="hsla(0, 0%, 15%, 1)" stroke-width="2" fill="none"/>
</svg>